<?xml version="1.0" standalone="no"?>
<!DOCTYPE svg PUBLIC "-//W3C//DTD SVG 20010904//EN"
 "http://www.w3.org/TR/2001/REC-SVG-20010904/DTD/svg10.dtd">
<svg version="1.0" xmlns="http://www.w3.org/2000/svg"
 width="2016.000000pt" height="2016.000000pt" viewBox="0 0 2016.000000 2016.000000"
 preserveAspectRatio="xMidYMid meet">
<metadata>
Created by potrace 1.14, written by Peter Selinger 2001-2017
</metadata>
<g transform="translate(0.000000,2016.000000) scale(0.100000,-0.100000)"
fill="#000000" stroke="none">
<path d="M3948 13435 c-2 -2 -27 -6 -57 -9 -168 -20 -350 -76 -506 -156 -96
-50 -199 -112 -215 -130 -3 -3 -27 -22 -55 -43 -61 -46 -196 -183 -253 -257
-23 -30 -45 -59 -50 -65 -32 -40 -132 -222 -132 -240 0 -8 -4 -15 -10 -15 -5
0 -10 -4 -10 -9 0 -9 -13 -39 -95 -216 -13 -27 -38 -81 -55 -120 -18 -38 -39
-86 -48 -105 -9 -19 -17 -37 -18 -40 -2 -13 -30 -66 -37 -71 -5 -3 -9 -10 -9
-15 -1 -14 -11 -39 -92 -212 -42 -90 -76 -165 -76 -167 0 -2 -27 -60 -60 -130
-33 -70 -60 -128 -60 -130 0 -1 -20 -45 -44 -96 -24 -52 -58 -125 -76 -164
-18 -38 -44 -95 -58 -125 -14 -30 -26 -57 -27 -60 -1 -3 -20 -45 -43 -93 -23
-48 -45 -99 -48 -112 -3 -14 -10 -25 -15 -25 -5 0 -9 -5 -9 -10 0 -6 -11 -33
-25 -62 -14 -28 -25 -58 -25 -65 0 -7 -4 -13 -10 -13 -5 0 -10 -6 -10 -13 0
-7 -12 -38 -26 -68 -15 -30 -39 -82 -55 -116 -16 -35 -42 -92 -59 -128 -16
-36 -30 -70 -30 -75 0 -6 -4 -10 -10 -10 -5 0 -10 -6 -10 -14 0 -7 -23 -63
-51 -122 -93 -200 -107 -229 -129 -279 -12 -27 -36 -79 -53 -115 -17 -36 -31
-67 -32 -70 0 -3 -9 -20 -18 -37 -10 -18 -14 -33 -10 -33 5 0 3 -4 -2 -8 -6
-4 -31 -52 -55 -107 -25 -55 -49 -103 -55 -107 -5 -4 -7 -8 -3 -8 3 0 -9 -32
-28 -70 -19 -39 -34 -72 -34 -74 0 -3 -23 -53 -51 -113 -28 -59 -60 -128 -71
-153 -12 -25 -40 -87 -64 -138 -24 -52 -44 -95 -44 -97 0 -2 -23 -52 -50 -110
-28 -58 -50 -110 -50 -116 0 -5 -5 -9 -12 -9 -6 0 -9 -3 -6 -6 3 -3 -18 -56
-47 -117 -95 -202 -109 -232 -110 -237 -1 -3 -10 -23 -20 -45 -10 -22 -19 -43
-19 -47 -1 -4 -7 -13 -13 -19 -7 -7 -13 -19 -13 -25 0 -7 -29 -74 -65 -149
-36 -76 -65 -138 -65 -140 0 -3 -44 -97 -126 -273 -24 -51 -44 -95 -44 -97 0
-2 -20 -46 -45 -99 -25 -53 -45 -101 -45 -106 0 -6 -5 -10 -10 -10 -6 0 -9 -3
-8 -7 2 -5 -12 -39 -31 -77 -18 -38 -34 -74 -35 -80 -1 -6 -5 -16 -9 -22 -5
-8 327 -11 1232 -11 l1239 0 58 136 c31 75 65 154 75 176 10 22 50 117 89 210
39 94 80 189 91 212 10 24 19 45 19 48 0 2 11 28 24 57 13 29 48 109 76 178
29 69 57 131 63 138 5 6 6 12 3 12 -4 0 -1 12 7 28 20 36 77 167 77 175 0 3
14 36 31 74 17 37 37 84 45 103 8 19 19 43 24 52 6 10 10 22 10 27 0 4 10 30
22 57 12 27 22 51 23 54 0 3 3 10 6 15 4 6 32 71 63 145 32 74 63 149 70 165
8 17 33 75 56 130 23 55 51 119 61 142 11 24 19 45 19 48 0 4 16 41 60 140 5
11 30 70 55 130 26 61 55 128 65 150 9 22 21 51 25 65 4 14 11 30 15 35 4 6
36 78 70 160 34 83 70 169 81 192 10 23 19 47 19 52 0 6 4 11 8 11 5 0 9 6 9
13 0 6 12 38 26 70 15 32 27 60 27 62 0 2 14 34 30 70 17 36 30 68 30 71 0 3
11 30 25 60 14 30 25 57 25 59 0 2 11 28 24 57 14 30 33 76 44 103 11 28 28
68 38 90 10 22 18 42 19 45 1 3 8 21 17 40 8 19 46 107 83 195 37 88 79 184
93 214 13 30 25 59 26 65 1 6 7 20 13 31 10 18 21 20 132 19 66 0 123 -3 126
-6 3 -3 -28 -88 -70 -189 -42 -101 -96 -233 -121 -294 -53 -130 -55 -135 -82
-200 -12 -27 -35 -84 -53 -125 -17 -41 -32 -79 -33 -85 -1 -5 -10 -27 -19 -49
-9 -21 -17 -40 -17 -42 0 -2 -11 -27 -24 -56 -20 -44 -105 -253 -132 -323 -4
-11 -6 -23 -6 -27 1 -5 -3 -8 -8 -8 -6 0 -10 -7 -10 -15 0 -8 -11 -39 -25 -69
-14 -30 -25 -61 -25 -70 0 -8 -3 -16 -8 -18 -4 -1 -25 -48 -46 -103 -22 -55
-47 -118 -57 -140 -10 -22 -63 -152 -119 -290 -55 -137 -105 -259 -110 -270
-13 -29 -40 -97 -40 -101 0 -2 197 -4 438 -4 240 -1 753 -2 1139 -3 l702 -3 5
21 c3 12 13 39 23 61 9 21 17 41 18 44 1 3 5 19 10 35 4 17 11 35 15 40 4 6
19 44 33 85 39 115 96 273 107 295 9 21 90 243 94 260 2 6 6 17 9 25 9 20 51
134 52 140 1 3 5 13 8 23 4 9 10 25 14 35 3 9 7 19 8 22 1 3 4 12 8 20 3 8 42
114 86 235 44 121 137 375 206 565 70 190 142 388 161 440 19 52 37 102 41
110 3 8 7 19 7 25 1 5 55 10 129 11 110 1 127 -1 128 -15 0 -9 1 -1040 2
-2291 l2 -2275 985 -1 986 -1 0 3358 0 3359 -1231 0 -1230 0 -84 -197 c-46
-109 -90 -211 -98 -228 -8 -16 -30 -68 -49 -115 -20 -47 -40 -89 -45 -95 -5
-5 -9 -15 -9 -22 0 -7 -11 -36 -24 -65 -57 -126 -66 -147 -66 -152 0 -3 -15
-39 -33 -78 -18 -40 -59 -134 -91 -210 l-58 -136 -109 -1 c-60 0 -109 4 -109
9 0 4 10 30 22 57 12 26 22 50 23 53 4 13 20 49 41 98 13 29 35 80 50 115 14
34 31 76 39 92 7 17 34 79 60 140 25 60 55 128 66 152 10 23 19 44 19 47 0 3
14 35 30 71 17 36 30 68 30 70 0 2 14 34 30 70 17 36 30 67 30 69 0 3 10 26
22 53 12 26 22 50 23 53 3 9 17 43 40 96 l23 51 -1224 0 c-673 0 -1225 -1
-1226 -2z"/>
<path d="M9237 13431 c-6 -13 1 -2869 7 -2921 12 -108 21 -156 43 -240 8 -30
16 -62 18 -70 27 -111 135 -340 210 -447 25 -35 45 -68 45 -73 0 -6 4 -10 8
-10 4 0 24 -21 44 -47 79 -104 275 -277 400 -355 57 -35 181 -98 238 -121 25
-10 54 -22 65 -27 53 -22 223 -68 283 -75 20 -3 51 -7 67 -10 64 -11 273 -20
280 -13 3 3 22 2 41 -2 19 -4 36 -4 39 0 3 4 21 4 40 0 19 -4 37 -4 40 0 3 4
21 4 40 0 19 -4 37 -5 39 -1 2 3 137 4 301 1 163 -3 299 -2 303 2 14 14 35 -9
27 -28 -5 -11 -9 -22 -10 -26 -2 -5 -4 -10 -5 -13 -1 -3 -3 -8 -5 -12 -1 -5
-5 -17 -9 -28 -17 -43 -19 -51 -23 -69 -2 -11 -6 -22 -9 -25 -3 -3 -569 -7
-1257 -7 -689 -1 -1254 -2 -1257 -3 -3 0 -5 -469 -5 -1041 0 -1033 0 -1041 20
-1046 30 -7 2894 3 2940 10 175 29 338 68 400 95 11 5 36 15 55 22 102 37 266
128 418 234 103 72 392 376 392 413 0 4 8 17 18 28 22 23 92 141 92 155 0 5 5
9 10 9 6 0 9 3 8 8 -1 4 11 34 26 67 37 79 57 127 126 290 23 55 45 105 48
110 4 6 7 15 8 20 1 6 13 33 25 60 13 28 23 52 24 55 0 3 7 21 16 40 9 19 49
114 90 210 40 96 76 177 79 180 3 3 6 10 7 15 1 8 198 473 232 550 10 22 68
158 82 190 4 11 17 41 29 67 22 51 42 100 45 108 1 3 7 19 15 35 31 71 49 114
75 175 26 62 51 121 80 185 7 17 36 84 63 151 28 66 62 146 76 177 14 30 26
59 26 62 0 3 12 32 26 63 15 31 30 66 35 77 4 11 22 51 38 88 17 38 31 71 31
73 0 3 10 26 21 52 12 25 22 51 23 58 1 7 8 19 15 28 7 9 11 16 7 16 -4 0 1
15 11 33 9 17 18 34 18 37 4 16 146 344 160 370 7 14 14 28 14 33 0 4 8 24 17
45 9 20 18 42 19 48 2 6 14 35 28 65 14 30 89 205 167 389 78 184 149 351 158
370 9 19 17 37 18 40 1 8 22 57 46 108 12 26 23 52 24 57 1 6 11 31 22 56 11
25 42 94 67 154 26 61 53 124 60 140 26 58 180 420 181 425 1 9 23 59 44 102
11 23 20 47 20 54 0 9 -267 11 -1130 11 -621 0 -1133 -3 -1138 -6 -10 -7 -62
-116 -62 -131 0 -6 -4 -10 -10 -10 -5 0 -9 -4 -7 -8 1 -5 -10 -35 -25 -68 -14
-32 -33 -75 -41 -94 -8 -19 -29 -64 -45 -100 -30 -63 -64 -140 -67 -150 -1 -3
-13 -31 -28 -64 -15 -32 -27 -60 -27 -62 0 -1 -17 -40 -39 -86 -21 -46 -62
-137 -90 -203 -29 -66 -61 -138 -72 -161 -10 -22 -19 -44 -19 -49 0 -5 -7 -16
-15 -25 -8 -9 -16 -25 -18 -36 -2 -10 -16 -46 -31 -79 -48 -105 -62 -136 -146
-324 -45 -101 -93 -209 -107 -240 -14 -31 -32 -72 -40 -91 -9 -19 -26 -57 -38
-85 -13 -27 -42 -93 -65 -145 -23 -52 -44 -97 -47 -100 -2 -3 -305 -5 -672 -6
l-667 0 0 93 0 93 591 0 c324 0 598 0 608 0 19 0 31 25 127 245 28 66 60 139
71 162 10 23 19 44 19 48 0 3 18 44 40 91 22 47 40 88 40 91 0 3 7 19 15 36
52 113 247 564 248 575 0 6 4 12 9 12 4 0 8 6 8 13 0 7 11 37 25 65 14 29 25
59 25 67 0 8 5 15 10 15 6 0 10 5 10 10 0 6 7 27 17 48 9 20 17 40 17 44 1 3
4 10 9 14 4 4 7 16 7 26 0 10 5 18 10 18 6 0 10 6 10 14 0 8 14 45 31 83 35
77 52 116 54 123 0 3 6 15 13 26 6 12 8 24 5 28 -3 3 -1 6 5 6 7 0 12 5 12 11
0 5 11 35 25 65 14 30 25 56 25 58 0 2 12 30 27 62 15 33 28 64 29 70 1 8
-579 11 -2142 11 -1180 0 -2146 -3 -2147 -6z"/>
<path d="M17121 13429 c-24 -5 -60 -11 -80 -13 -20 -3 -62 -11 -93 -19 -32 -8
-58 -13 -58 -10 0 2 -8 -1 -18 -6 -11 -6 -30 -12 -43 -15 -13 -2 -37 -10 -54
-17 -16 -7 -32 -13 -35 -13 -84 -20 -347 -162 -453 -246 -101 -79 -202 -177
-296 -286 -89 -103 -203 -297 -276 -469 -20 -49 -43 -103 -51 -120 -7 -16 -24
-57 -37 -90 -37 -92 -186 -446 -202 -480 -7 -16 -57 -133 -110 -260 -53 -126
-102 -243 -110 -260 -7 -16 -55 -129 -105 -250 -51 -121 -103 -243 -116 -272
-13 -28 -24 -54 -24 -57 0 -2 -10 -26 -22 -53 -11 -26 -22 -52 -23 -58 -2 -5
-15 -37 -29 -70 -15 -33 -31 -70 -37 -82 -11 -28 -17 -42 -69 -161 -22 -51
-40 -99 -40 -107 0 -8 -4 -15 -10 -15 -5 0 -10 -8 -10 -18 0 -10 -3 -22 -7
-26 -5 -4 -8 -11 -9 -14 0 -4 -5 -18 -11 -32 -79 -188 -189 -444 -204 -477
-10 -24 -19 -45 -19 -48 0 -4 -9 -26 -20 -51 -22 -46 -42 -96 -45 -104 0 -3
-10 -25 -21 -50 -11 -25 -38 -88 -59 -140 -22 -52 -42 -97 -45 -100 -3 -3 -6
-12 -8 -20 -2 -8 -10 -30 -18 -47 -8 -18 -21 -50 -30 -70 -8 -21 -22 -51 -29
-68 -8 -16 -37 -86 -66 -155 -28 -69 -59 -143 -69 -165 -19 -45 -33 -78 -35
-85 -1 -3 -8 -21 -17 -40 -8 -19 -28 -64 -43 -100 -39 -94 -178 -423 -242
-575 -30 -71 -61 -143 -69 -160 -7 -16 -14 -37 -16 -45 -2 -8 -6 -17 -9 -20
-3 -3 -19 -39 -35 -80 -15 -41 -31 -77 -34 -80 -3 -3 -14 -27 -24 -55 -11 -27
-27 -68 -37 -90 -18 -40 -69 -163 -84 -200 -5 -11 -7 -23 -7 -27 1 -5 -2 -8
-8 -8 -5 0 -10 -6 -10 -13 0 -8 -6 -27 -14 -43 -8 -16 -17 -38 -20 -50 l-6
-21 3405 0 3405 0 0 1623 0 1624 -452 1 c-891 1 -1473 1 -2106 -2 -353 -1
-645 0 -648 4 -3 3 -1 14 4 24 6 10 13 32 16 48 4 27 30 120 53 199 l9 30 760
2 c417 2 761 4 764 5 3 1 10 0 15 -1 17 -4 127 -1 132 4 2 2 18 0 34 -4 16 -5
29 -6 29 -2 0 6 153 7 170 1 3 -1 10 0 15 1 6 1 276 4 600 5 325 2 593 3 598
4 4 1 7 710 7 1576 l0 1575 -1497 -1 c-824 -1 -1518 -5 -1542 -10z m1589
-2226 c0 -46 -3 -83 -7 -84 -5 0 -340 -3 -746 -5 -730 -5 -739 -5 -732 15 3
11 8 30 11 43 13 59 16 74 18 83 1 6 5 15 8 21 5 7 230 10 727 10 l721 0 0
-83z m3 -2283 l0 -95 -1034 -2 -1035 -1 23 90 c13 50 25 94 28 97 2 4 457 7
1011 6 l1008 0 -1 -95z"/>
</g>
</svg>
